<svg width="1600" height="1000" viewBox="0 0 1600 1000" fill="none" xmlns="http://www.w3.org/2000/svg">
  <rect width="1600" height="1000" rx="36" fill="#11141B"/>
  <rect x="36" y="36" width="1528" height="928" rx="28" fill="#171B24" stroke="#2B3342" stroke-width="2"/>
  <rect x="72" y="72" width="1456" height="120" rx="24" fill="url(#paint0_linear)"/>
  <rect x="112" y="112" width="320" height="18" rx="9" fill="white" fill-opacity="0.9"/>
  <rect x="112" y="146" width="520" height="12" rx="6" fill="white" fill-opacity="0.45"/>
  <rect x="72" y="228" width="462" height="668" rx="28" fill="#121722"/>
  <rect x="108" y="268" width="170" height="16" rx="8" fill="#7DF29A"/>
  <rect x="108" y="298" width="240" height="34" rx="17" fill="#1E2632"/>
  <rect x="108" y="360" width="390" height="126" rx="26" fill="#1E2632"/>
  <rect x="108" y="514" width="390" height="126" rx="26" fill="#1E2632"/>
  <rect x="108" y="668" width="390" height="126" rx="26" fill="#1E2632"/>
  <rect x="574" y="228" width="462" height="668" rx="28" fill="#121722"/>
  <rect x="610" y="268" width="170" height="16" rx="8" fill="#FFB36A"/>
  <rect x="610" y="298" width="220" height="34" rx="17" fill="#1E2632"/>
  <rect x="610" y="360" width="390" height="126" rx="26" fill="#1E2632"/>
  <rect x="610" y="514" width="390" height="126" rx="26" fill="#1E2632"/>
  <rect x="610" y="668" width="390" height="126" rx="26" fill="#1E2632"/>
  <rect x="1076" y="228" width="452" height="668" rx="28" fill="#121722"/>
  <rect x="1112" y="268" width="200" height="16" rx="8" fill="#8BAAFF"/>
  <rect x="1112" y="298" width="240" height="34" rx="17" fill="#1E2632"/>
  <rect x="1112" y="360" width="380" height="434" rx="26" fill="#1E2632"/>
  <rect x="1140" y="394" width="180" height="14" rx="7" fill="#C7D0DD" fill-opacity="0.7"/>
  <rect x="1140" y="430" width="220" height="12" rx="6" fill="#C7D0DD" fill-opacity="0.45"/>
  <rect x="1140" y="470" width="130" height="40" rx="14" fill="#8BC34A"/>
  <text x="800" y="934" fill="#E9EDF5" font-family="Arial, sans-serif" font-size="48" text-anchor="middle">Replace with your practice preset screenshot</text>
  <defs>
    <linearGradient id="paint0_linear" x1="72" y1="72" x2="1528" y2="192" gradientUnits="userSpaceOnUse">
      <stop stop-color="#FF6A3D"/>
      <stop offset="1" stop-color="#FFD166"/>
    </linearGradient>
  </defs>
</svg>
