<svg width="72" height="72" viewBox="0 0 72 72" fill="none" xmlns="http://www.w3.org/2000/svg">
<g filter="url(#filter0_d_63_376)">
<path d="M8 8H20V12H24V8H28H56V12H60V56H56V60H8V8Z" fill="white"/>
<path d="M58 6V10H62V58H58V62H6V6H58Z" stroke="black" stroke-width="4"/>
</g>
<rect x="36" y="16" width="4" height="12" fill="black"/>
<rect x="52" y="16" width="4" height="8" fill="black"/>
<rect x="48" y="28" width="4" height="8" transform="rotate(90 48 28)" fill="black"/>
<rect x="52" y="12" width="4" height="12" transform="rotate(90 52 12)" fill="black"/>
<rect x="48" y="24" width="4" height="4" fill="black"/>
<rect x="52" y="28" width="4" height="4" fill="black"/>
<rect x="12" y="12" width="4" height="20" fill="black"/>
<rect x="28" y="12" width="4" height="20" fill="black"/>
<rect x="28" y="20" width="4" height="12" transform="rotate(90 28 20)" fill="black"/>
<rect x="12" y="36" width="4" height="20" fill="black"/>
<rect x="32" y="52" width="4" height="16" transform="rotate(90 32 52)" fill="black"/>
<rect x="36" y="40" width="4" height="12" fill="black"/>
<rect x="52" y="36" width="4" height="12" transform="rotate(90 52 36)" fill="black"/>
<rect x="52" y="52" width="4" height="12" transform="rotate(90 52 52)" fill="black"/>
<rect x="56" y="48" width="4" height="4" transform="rotate(90 56 48)" fill="black"/>
<rect x="56" y="40" width="4" height="4" transform="rotate(90 56 40)" fill="black"/>
<rect y="4" width="4" height="64" fill="white"/>
<rect x="60" width="4" height="60" transform="rotate(90 60 0)" fill="white"/>
<rect x="64" width="4" height="64" transform="rotate(90 64 0)" fill="white"/>
<rect x="68" y="4" width="4" height="8" transform="rotate(90 68 4)" fill="white"/>
<rect x="72" y="8" width="4" height="8" transform="rotate(90 72 8)" fill="white"/>
<rect x="68" y="12" width="4" height="56" fill="white"/>
<rect x="64" y="64" width="4" height="8" fill="white"/>
<rect x="4" y="64" width="4" height="8" fill="white"/>
<rect x="64" y="68" width="4" height="56" transform="rotate(90 64 68)" fill="white"/>
<defs>
<filter id="filter0_d_63_376" x="4" y="4" width="64" height="64" filterUnits="userSpaceOnUse" color-interpolation-filters="sRGB">
<feFlood flood-opacity="0" result="BackgroundImageFix"/>
<feColorMatrix in="SourceAlpha" type="matrix" values="0 0 0 0 0 0 0 0 0 0 0 0 0 0 0 0 0 0 127 0" result="hardAlpha"/>
<feOffset dx="4" dy="4"/>
<feComposite in2="hardAlpha" operator="out"/>
<feColorMatrix type="matrix" values="0 0 0 0 0 0 0 0 0 0 0 0 0 0 0 0 0 0 1 0"/>
<feBlend mode="normal" in2="BackgroundImageFix" result="effect1_dropShadow_63_376"/>
<feBlend mode="normal" in="SourceGraphic" in2="effect1_dropShadow_63_376" result="shape"/>
</filter>
</defs>
</svg>
